<?xml version="1.0" encoding="utf-8"?>
<!-- Generator: Adobe Illustrator 17.0.0, SVG Export Plug-In . SVG Version: 6.00 Build 0)  -->
<!DOCTYPE svg PUBLIC "-//W3C//DTD SVG 1.1//EN" "http://www.w3.org/Graphics/SVG/1.1/DTD/svg11.dtd">
<svg version="1.1" id="Layer_1" xmlns="http://www.w3.org/2000/svg" xmlns:xlink="http://www.w3.org/1999/xlink" x="0px" y="0px"
	 width="526.058px" height="151.852px" viewBox="0 0 526.058 151.852" enable-background="new 0 0 526.058 151.852"
	 xml:space="preserve">
<path fill="#0092C0" d="M8.989,52.637c-0.409-0.953-0.783-1.891-1.124-2.81c-0.34-0.919-0.731-1.736-1.174-2.451
	c-0.443-0.714-0.971-1.31-1.584-1.787c-0.613-0.477-1.327-0.749-2.145-0.818L0,44.465v-2.246h25.434v2.246l-3.167,0.307
	c-0.408,0.069-0.884,0.136-1.43,0.205c-0.544,0.067-1.039,0.187-1.481,0.357c-0.443,0.17-0.833,0.426-1.174,0.766
	c-0.342,0.34-0.512,0.749-0.512,1.226c0,0.273,0.153,0.869,0.46,1.788c0.307,0.919,0.596,1.685,0.869,2.298l17.67,45.556
	c0.409-1.02,1.142-2.859,2.197-5.516c1.056-2.655,2.264-5.72,3.625-9.193c1.362-3.472,2.776-7.115,4.239-10.929
	c1.465-3.813,2.827-7.354,4.087-10.622c1.259-3.27,2.281-6.078,3.064-8.428c0.783-2.349,1.175-3.795,1.175-4.341
	c0-1.021-0.426-1.719-1.277-2.094c-0.851-0.374-1.753-0.63-2.707-0.766l-4.596-0.613v-2.246h22.064v2.246l-2.656,0.613
	c-1.157,0.205-2.179,0.749-3.064,1.634c-0.544,0.545-1.157,1.515-1.838,2.911c-0.681,1.396-1.379,2.928-2.094,4.597
	c-0.715,1.668-1.431,3.354-2.145,5.056c-0.715,1.702-1.378,3.167-1.991,4.392l-6.947,16.751c-1.43,3.541-2.809,6.929-4.137,10.164
	c-1.329,3.234-2.536,6.146-3.626,8.733c-1.09,2.588-1.992,4.784-2.707,6.589c-0.715,1.804-1.175,3.047-1.378,3.727
	c-0.273,0.204-0.75,0.46-1.431,0.766c-0.68,0.307-1.36,0.562-2.042,0.767L8.989,52.637z"/>
<path fill="#0092C0" d="M98.185,107.386l3.677-0.307c1.022-0.067,1.788-0.221,2.298-0.46c0.511-0.237,0.902-0.8,1.175-1.686
	c0.271-0.884,0.425-2.195,0.459-3.932c0.034-1.737,0.051-4.172,0.051-7.304V58.153c0-3.133-0.017-5.567-0.051-7.304
	c-0.035-1.736-0.188-3.03-0.459-3.881c-0.273-0.852-0.664-1.395-1.175-1.635c-0.51-0.238-1.276-0.426-2.298-0.562l-3.677-0.307
	v-2.246h24.821v2.246l-3.677,0.307c-1.022,0.136-1.788,0.324-2.298,0.562c-0.51,0.239-0.902,0.783-1.175,1.635
	c-0.271,0.851-0.425,2.145-0.46,3.881c-0.034,1.736-0.05,4.171-0.05,7.304v35.546c0,3.132,0.017,5.566,0.05,7.304
	c0.035,1.736,0.188,3.048,0.46,3.932c0.272,0.886,0.665,1.448,1.175,1.686c0.511,0.239,1.276,0.393,2.298,0.46l3.677,0.307v2.247
	H98.185V107.386z"/>
<path fill="#0092C0" d="M221.004,89.919c-0.34,3.2-0.817,6.128-1.43,8.785c-0.613,2.655-1.532,5.516-2.758,8.58
	c-0.749,0.34-1.788,0.73-3.115,1.174c-1.328,0.442-2.911,0.868-4.75,1.277c-1.838,0.408-3.882,0.749-6.13,1.021
	c-2.246,0.272-4.596,0.409-7.048,0.409c-4.903,0-9.618-0.613-14.146-1.839c-4.527-1.226-8.563-3.218-12.104-5.976
	c-3.54-2.758-6.367-6.367-8.477-10.827c-2.111-4.46-3.167-9.925-3.167-16.395c0-4.562,0.562-8.597,1.685-12.104
	c1.123-3.507,2.656-6.571,4.597-9.193c1.941-2.622,4.188-4.834,6.741-6.639c2.554-1.805,5.243-3.269,8.07-4.393
	c2.826-1.123,5.686-1.923,8.58-2.401c2.894-0.476,5.703-0.714,8.427-0.714c5.243,0,9.686,0.493,13.33,1.48
	c3.644,0.988,6.146,1.89,7.508,2.707c0.477,2.042,0.869,4.426,1.175,7.15c0.307,2.724,0.46,5.379,0.46,7.967l-2.758,0.613
	c-0.273-1.022-0.63-2.452-1.072-4.29c-0.443-1.838-1.328-3.677-2.657-5.516c-1.327-1.838-3.251-3.422-5.77-4.749
	c-2.52-1.329-5.958-1.992-10.317-1.992c-4.221,0-8.001,0.68-11.338,2.042c-3.337,1.362-6.196,3.32-8.58,5.873
	c-2.382,2.554-4.204,5.705-5.465,9.449c-1.26,3.746-1.89,8.002-1.89,12.769c0,4.357,0.527,8.562,1.583,12.614
	c1.056,4.051,2.69,7.627,4.903,10.726c2.214,3.098,5.023,5.583,8.427,7.456c3.406,1.873,7.423,2.809,12.054,2.809
	c4.222,0,7.627-0.579,10.214-1.736c2.588-1.157,4.681-2.639,6.282-4.442c1.6-1.805,2.825-3.797,3.677-5.976
	c0.851-2.18,1.686-4.29,2.503-6.334L221.004,89.919z"/>
<path fill="#FFFFFF" d="M257.474,107.386l3.678-0.307c1.021-0.067,1.838-0.341,2.451-0.817c0.613-0.476,1.089-1.276,1.43-2.4
	c0.342-1.123,0.561-2.588,0.664-4.392c0.101-1.805,0.154-4.103,0.154-6.895V42.219l2.349-0.92c1.429,1.77,3.388,4.068,5.872,6.895
	c2.487,2.826,5.262,5.907,8.326,9.244c3.064,3.337,6.299,6.793,9.703,10.368c3.404,3.574,6.708,7.014,9.908,10.316
	c3.2,3.304,6.196,6.367,8.989,9.193c2.791,2.826,5.107,5.158,6.945,6.997V59.276c0-2.792-0.034-5.107-0.103-6.946
	c-0.067-1.838-0.272-3.286-0.613-4.342c-0.34-1.054-0.886-1.82-1.634-2.298c-0.749-0.477-1.838-0.783-3.268-0.919l-3.678-0.307
	v-2.246h22.064v2.246l-3.677,0.307c-0.954,0.069-1.703,0.341-2.247,0.818c-0.545,0.477-0.988,1.276-1.328,2.399
	c-0.34,1.124-0.562,2.605-0.664,4.443c-0.102,1.838-0.152,4.12-0.152,6.844v50.357l-2.248,0.919
	c-1.158-1.158-3.32-3.404-6.485-6.741c-3.167-3.337-7.406-7.764-12.719-13.279l-30.643-32.379v34.423
	c0,2.792,0.035,5.106,0.103,6.945c0.067,1.839,0.256,3.285,0.562,4.341c0.307,1.056,0.816,1.821,1.532,2.298
	c0.714,0.477,1.753,0.783,3.114,0.92l3.678,0.307v2.247h-22.064V107.386z"/>
<path fill="#FFFFFF" d="M367.2,107.386l3.677-0.307c1.022-0.067,1.788-0.221,2.299-0.46c0.51-0.237,0.902-0.8,1.175-1.686
	c0.272-0.884,0.425-2.195,0.46-3.932c0.033-1.737,0.05-4.172,0.05-7.304V58.153c0-3.133-0.017-5.567-0.05-7.304
	c-0.035-1.736-0.188-3.03-0.46-3.881c-0.272-0.852-0.665-1.395-1.175-1.635c-0.511-0.238-1.276-0.426-2.299-0.562l-3.677-0.307
	v-2.246h26.659c2.452,0,5.039,0.153,7.764,0.459c2.724,0.306,5.243,1.039,7.558,2.196c2.315,1.158,4.239,2.86,5.771,5.107
	c1.532,2.248,2.299,5.312,2.299,9.194c0,2.383-0.477,4.528-1.43,6.435c-0.954,1.906-2.128,3.591-3.525,5.056
	c-1.396,1.463-2.911,2.706-4.545,3.728c-1.635,1.021-3.166,1.872-4.596,2.554c0.407,0.748,0.902,1.667,1.479,2.758
	c0.579,1.09,1.209,2.298,1.891,3.625c0.681,1.329,1.397,2.674,2.146,4.036c0.749,1.36,1.463,2.655,2.145,3.881
	c2.18,3.881,4.29,7.185,6.333,9.908c2.044,2.723,3.711,4.46,5.005,5.209c1.157,0.681,2.86,1.021,5.107,1.021v2.247h-7.865
	c-3.404,0-6.281-0.987-8.632-2.962c-2.349-1.975-4.307-4.393-5.873-7.253l-4.086-7.864c-1.36-2.521-2.587-4.683-3.677-6.486
	c-1.09-1.805-1.974-2.979-2.655-3.523c-0.817-0.682-1.805-1.073-2.962-1.175c-1.158-0.103-2.281-0.153-3.371-0.153h-3.779v13.483
	c0,3.132,0.017,5.566,0.051,7.304c0.034,1.736,0.171,3.048,0.409,3.932c0.238,0.886,0.629,1.448,1.175,1.686
	c0.544,0.239,1.293,0.393,2.246,0.46l3.677,0.307v2.247H367.2V107.386z M384.36,77.355h5.822c2.11,0,4.153-0.306,6.129-0.919
	c1.975-0.613,3.728-1.565,5.26-2.859c1.532-1.294,2.74-2.962,3.626-5.005c0.886-2.042,1.328-4.494,1.328-7.354
	c0-2.997-0.459-5.499-1.379-7.507c-0.919-2.009-2.11-3.61-3.575-4.802c-1.464-1.19-3.149-2.042-5.057-2.553
	c-1.906-0.512-3.847-0.766-5.822-0.766c-1.089,0-2.162,0.085-3.217,0.254c-1.055,0.171-2.094,0.358-3.115,0.562V77.355z"/>
<path fill="#FFFFFF" d="M523.811,106.058c-0.886,0.341-2.197,0.801-3.934,1.38c-1.735,0.577-3.746,1.14-6.025,1.686
	c-2.281,0.544-4.768,1.021-7.457,1.429c-2.69,0.409-5.396,0.613-8.121,0.613c-5.107,0-10.011-0.596-14.708-1.788
	c-4.699-1.19-8.836-3.166-12.41-5.924c-3.576-2.758-6.435-6.367-8.58-10.827c-2.146-4.46-3.218-9.959-3.218-16.497
	c0-4.562,0.56-8.597,1.685-12.104c1.123-3.507,2.655-6.571,4.597-9.193c1.939-2.622,4.186-4.834,6.741-6.639
	c2.553-1.805,5.243-3.269,8.068-4.393c2.826-1.123,5.688-1.923,8.58-2.401c2.894-0.476,5.704-0.714,8.427-0.714
	c5.244,0,9.688,0.493,13.331,1.48c3.642,0.988,6.146,1.89,7.508,2.707c0.476,2.042,0.867,4.426,1.174,7.15
	c0.306,2.724,0.459,5.379,0.459,7.967l-2.758,0.613c-0.273-1.022-0.63-2.452-1.072-4.29c-0.442-1.838-1.327-3.677-2.655-5.516
	c-1.328-1.838-3.251-3.422-5.771-4.749c-2.519-1.329-5.959-1.992-10.316-1.992c-4.223,0-8.001,0.68-11.338,2.042
	c-3.337,1.362-6.197,3.32-8.58,5.873c-2.384,2.554-4.205,5.705-5.465,9.449c-1.26,3.746-1.89,8.002-1.89,12.769
	c0,4.357,0.562,8.562,1.686,12.614c1.123,4.051,2.878,7.627,5.26,10.726c2.385,3.098,5.38,5.583,8.989,7.456
	c3.608,1.873,7.934,2.809,12.972,2.809c1.839,0,3.849-0.103,6.027-0.306c2.179-0.204,4.153-0.546,5.925-1.023v-3.778
	c0-3.133-0.035-5.567-0.103-7.304c-0.069-1.736-0.323-3.03-0.767-3.881c-0.442-0.851-1.158-1.397-2.144-1.635
	c-0.988-0.239-2.367-0.426-4.137-0.562l-3.678-0.307v-2.246h25.944v2.246l-3.677,0.307c-0.477,0.137-0.852,0.307-1.124,0.512
	c-0.272,0.204-0.459,0.663-0.561,1.379c-0.102,0.715-0.171,1.769-0.204,3.166c-0.034,1.395-0.051,3.319-0.051,5.771
	c0,1.565,0.067,2.57,0.204,3.014c0.137,0.442,0.612,0.663,1.43,0.663h1.021L523.811,106.058z"/>
<path fill-rule="evenodd" clip-rule="evenodd" fill="#0092C0" d="M241.23,0c0.592,0,1.073,33.994,1.073,75.926
	c0,41.932-0.481,75.926-1.073,75.926c-0.592,0-1.072-33.994-1.072-75.926C240.158,33.994,240.639,0,241.23,0"/>
</svg>
